<svg width="389" height="106" viewBox="0 0 389 106" fill="none" xmlns="http://www.w3.org/2000/svg">
<path d="M73.6953 104H2.25781V88.5312L35.1641 53.9375C43.2734 44.7031 47.3281 37.3672 47.3281 31.9297C47.3281 27.5234 46.3672 24.1719 44.4453 21.875C42.5234 19.5781 39.7344 18.4297 36.0781 18.4297C32.4688 18.4297 29.5391 19.9766 27.2891 23.0703C25.0391 26.1172 23.9141 29.9375 23.9141 34.5312H0.148438C0.148438 28.25 1.71875 22.4609 4.85938 17.1641C8 11.8203 12.3594 7.64844 17.9375 4.64844C23.5156 1.64844 29.75 0.148438 36.6406 0.148438C47.7031 0.148438 56.2109 2.70312 62.1641 7.8125C68.1641 12.9219 71.1641 20.2578 71.1641 29.8203C71.1641 33.8516 70.4141 37.7891 68.9141 41.6328C67.4141 45.4297 65.0703 49.4375 61.8828 53.6562C58.7422 57.8281 53.6562 63.4297 46.625 70.4609L33.4062 85.7188H73.6953V104ZM156.734 62.1641C156.734 75.9922 153.617 86.6562 147.383 94.1562C141.195 101.656 132.453 105.406 121.156 105.406C109.766 105.406 100.953 101.633 94.7188 94.0859C88.4844 86.5391 85.3672 75.8984 85.3672 62.1641V43.4609C85.3672 29.6328 88.4609 18.9688 94.6484 11.4688C100.883 3.96875 109.672 0.21875 121.016 0.21875C132.359 0.21875 141.148 3.99219 147.383 11.5391C153.617 19.0859 156.734 29.75 156.734 43.5312V62.1641ZM133.039 40.4375C133.039 33.0781 132.078 27.5937 130.156 23.9844C128.234 20.3281 125.188 18.5 121.016 18.5C116.938 18.5 113.961 20.1875 112.086 23.5625C110.258 26.9375 109.273 32.0469 109.133 38.8906V65.0469C109.133 72.6875 110.094 78.2891 112.016 81.8516C113.938 85.3672 116.984 87.125 121.156 87.125C125.188 87.125 128.164 85.4141 130.086 81.9922C132.008 78.5234 132.992 73.1094 133.039 65.75V40.4375ZM215.727 69.0547H173.469V50.7031H215.727V69.0547ZM305.023 14.2812L266.773 104H241.742L280.062 19.9062H231.266V1.625H305.023V14.2812ZM388.344 62.1641C388.344 75.9922 385.227 86.6562 378.992 94.1562C372.805 101.656 364.062 105.406 352.766 105.406C341.375 105.406 332.562 101.633 326.328 94.0859C320.094 86.5391 316.977 75.8984 316.977 62.1641V43.4609C316.977 29.6328 320.07 18.9688 326.258 11.4688C332.492 3.96875 341.281 0.21875 352.625 0.21875C363.969 0.21875 372.758 3.99219 378.992 11.5391C385.227 19.0859 388.344 29.75 388.344 43.5312V62.1641ZM364.648 40.4375C364.648 33.0781 363.688 27.5937 361.766 23.9844C359.844 20.3281 356.797 18.5 352.625 18.5C348.547 18.5 345.57 20.1875 343.695 23.5625C341.867 26.9375 340.883 32.0469 340.742 38.8906V65.0469C340.742 72.6875 341.703 78.2891 343.625 81.8516C345.547 85.3672 348.594 87.125 352.766 87.125C356.797 87.125 359.773 85.4141 361.695 81.9922C363.617 78.5234 364.602 73.1094 364.648 65.75V40.4375Z" fill="#ACD7F2"/>
</svg>
