<svg width="107" height="105" viewBox="0 0 107 105" fill="none" xmlns="http://www.w3.org/2000/svg">
<path d="M23.1641 70.5859H3.96875L0.945312 0.625H26.1875L23.1641 70.5859ZM0.242188 92.3828C0.242188 88.9141 1.48438 86.0781 3.96875 83.875C6.5 81.625 9.64062 80.5 13.3906 80.5C17.1406 80.5 20.2578 81.625 22.7422 83.875C25.2734 86.0781 26.5391 88.9141 26.5391 92.3828C26.5391 95.8516 25.2734 98.7109 22.7422 100.961C20.2578 103.164 17.1406 104.266 13.3906 104.266C9.64062 104.266 6.5 103.164 3.96875 100.961C1.48438 98.7109 0.242188 95.8516 0.242188 92.3828ZM62.9609 70.5859H43.7656L40.7422 0.625H65.9844L62.9609 70.5859ZM40.0391 92.3828C40.0391 88.9141 41.2812 86.0781 43.7656 83.875C46.2969 81.625 49.4375 80.5 53.1875 80.5C56.9375 80.5 60.0547 81.625 62.5391 83.875C65.0703 86.0781 66.3359 88.9141 66.3359 92.3828C66.3359 95.8516 65.0703 98.7109 62.5391 100.961C60.0547 103.164 56.9375 104.266 53.1875 104.266C49.4375 104.266 46.2969 103.164 43.7656 100.961C41.2812 98.7109 40.0391 95.8516 40.0391 92.3828ZM102.758 70.5859H83.5625L80.5391 0.625H105.781L102.758 70.5859ZM79.8359 92.3828C79.8359 88.9141 81.0781 86.0781 83.5625 83.875C86.0938 81.625 89.2344 80.5 92.9844 80.5C96.7344 80.5 99.8516 81.625 102.336 83.875C104.867 86.0781 106.133 88.9141 106.133 92.3828C106.133 95.8516 104.867 98.7109 102.336 100.961C99.8516 103.164 96.7344 104.266 92.9844 104.266C89.2344 104.266 86.0938 103.164 83.5625 100.961C81.0781 98.7109 79.8359 95.8516 79.8359 92.3828Z" fill="#ACD7F2"/>
</svg>
