<svg width="151" height="104" viewBox="0 0 151 104" fill="none" xmlns="http://www.w3.org/2000/svg">
<path d="M47.7812 104H24.0156V28.3438L0.671875 35.1641V17.1641L45.6016 1.625H47.7812V104ZM150.086 104H78.6484V88.5312L111.555 53.9375C119.664 44.7031 123.719 37.3672 123.719 31.9297C123.719 27.5234 122.758 24.1719 120.836 21.875C118.914 19.5781 116.125 18.4297 112.469 18.4297C108.859 18.4297 105.93 19.9766 103.68 23.0703C101.43 26.1172 100.305 29.9375 100.305 34.5312H76.5391C76.5391 28.25 78.1094 22.4609 81.25 17.1641C84.3906 11.8203 88.75 7.64844 94.3281 4.64844C99.9062 1.64844 106.141 0.148438 113.031 0.148438C124.094 0.148438 132.602 2.70312 138.555 7.8125C144.555 12.9219 147.555 20.2578 147.555 29.8203C147.555 33.8516 146.805 37.7891 145.305 41.6328C143.805 45.4297 141.461 49.4375 138.273 53.6562C135.133 57.8281 130.047 63.4297 123.016 70.4609L109.797 85.7188H150.086V104Z" fill="#ACD7F2"/>
</svg>
