<svg width="73" height="105" viewBox="0 0 73 105" fill="none" xmlns="http://www.w3.org/2000/svg">
<path d="M2.66406 52.9375L8.92188 0.625H68.7578V19.0469H28.1875L25.8672 39.3672C27.5547 38.3828 29.7578 37.5156 32.4766 36.7656C35.2422 36.0156 37.9375 35.6406 40.5625 35.6406C50.7344 35.6406 58.5391 38.6641 63.9766 44.7109C69.4609 50.7109 72.2031 59.1484 72.2031 70.0234C72.2031 76.5859 70.7266 82.5391 67.7734 87.8828C64.8672 93.1797 60.7656 97.2578 55.4688 100.117C50.1719 102.977 43.9141 104.406 36.6953 104.406C30.2734 104.406 24.25 103.094 18.625 100.469C13 97.7969 8.59375 94.1641 5.40625 89.5703C2.21875 84.9297 0.648438 79.7031 0.695312 73.8906H24.4609C24.6953 77.6406 25.8906 80.6172 28.0469 82.8203C30.2031 85.0234 33.0391 86.125 36.5547 86.125C44.5234 86.125 48.5078 80.2188 48.5078 68.4062C48.5078 57.4844 43.6328 52.0234 33.8828 52.0234C28.3516 52.0234 24.2266 53.8047 21.5078 57.3672L2.66406 52.9375Z" fill="#ACD7F2"/>
</svg>
