<svg width="234" height="106" viewBox="0 0 234 106" fill="none" xmlns="http://www.w3.org/2000/svg">
<path d="M47.7812 104H24.0156V28.3438L0.671875 35.1641V17.1641L45.6016 1.625H47.7812V104ZM149.734 62.1641C149.734 75.9922 146.617 86.6562 140.383 94.1562C134.195 101.656 125.453 105.406 114.156 105.406C102.766 105.406 93.9531 101.633 87.7188 94.0859C81.4844 86.5391 78.3672 75.8984 78.3672 62.1641V43.4609C78.3672 29.6328 81.4609 18.9688 87.6484 11.4688C93.8828 3.96875 102.672 0.21875 114.016 0.21875C125.359 0.21875 134.148 3.99219 140.383 11.5391C146.617 19.0859 149.734 29.75 149.734 43.5312V62.1641ZM126.039 40.4375C126.039 33.0781 125.078 27.5937 123.156 23.9844C121.234 20.3281 118.188 18.5 114.016 18.5C109.938 18.5 106.961 20.1875 105.086 23.5625C103.258 26.9375 102.273 32.0469 102.133 38.8906V65.0469C102.133 72.6875 103.094 78.2891 105.016 81.8516C106.938 85.3672 109.984 87.125 114.156 87.125C118.188 87.125 121.164 85.4141 123.086 81.9922C125.008 78.5234 125.992 73.1094 126.039 65.75V40.4375ZM233.125 62.1641C233.125 75.9922 230.008 86.6562 223.773 94.1562C217.586 101.656 208.844 105.406 197.547 105.406C186.156 105.406 177.344 101.633 171.109 94.0859C164.875 86.5391 161.758 75.8984 161.758 62.1641V43.4609C161.758 29.6328 164.852 18.9688 171.039 11.4688C177.273 3.96875 186.062 0.21875 197.406 0.21875C208.75 0.21875 217.539 3.99219 223.773 11.5391C230.008 19.0859 233.125 29.75 233.125 43.5312V62.1641ZM209.43 40.4375C209.43 33.0781 208.469 27.5937 206.547 23.9844C204.625 20.3281 201.578 18.5 197.406 18.5C193.328 18.5 190.352 20.1875 188.477 23.5625C186.648 26.9375 185.664 32.0469 185.523 38.8906V65.0469C185.523 72.6875 186.484 78.2891 188.406 81.8516C190.328 85.3672 193.375 87.125 197.547 87.125C201.578 87.125 204.555 85.4141 206.477 81.9922C208.398 78.5234 209.383 73.1094 209.43 65.75V40.4375Z" fill="#ACD7F2"/>
</svg>
