<svg width="223" height="106" viewBox="0 0 223 106" fill="none" xmlns="http://www.w3.org/2000/svg">
<path d="M24.9141 42.8984H36.0938C44.9531 42.8984 49.3828 38.5625 49.3828 29.8906C49.3828 26.5156 48.3281 23.7734 46.2188 21.6641C44.1094 19.5078 41.1328 18.4297 37.2891 18.4297C34.1484 18.4297 31.4062 19.3438 29.0625 21.1719C26.7656 23 25.6172 25.2734 25.6172 27.9922H1.92188C1.92188 22.6016 3.42188 17.7969 6.42188 13.5781C9.42188 9.35938 13.5703 6.07812 18.8672 3.73438C24.2109 1.34375 30.0703 0.148438 36.4453 0.148438C47.8359 0.148438 56.7891 2.75 63.3047 7.95312C69.8203 13.1562 73.0781 20.3047 73.0781 29.3984C73.0781 33.8047 71.7188 37.9766 69 41.9141C66.3281 45.8047 62.4141 48.9688 57.2578 51.4062C62.6953 53.375 66.9609 56.375 70.0547 60.4062C73.1484 64.3906 74.6953 69.3359 74.6953 75.2422C74.6953 84.3828 71.1797 91.6953 64.1484 97.1797C57.1172 102.664 47.8828 105.406 36.4453 105.406C29.7422 105.406 23.5078 104.141 17.7422 101.609C12.0234 99.0312 7.6875 95.4922 4.73438 90.9922C1.78125 86.4453 0.304688 81.2891 0.304688 75.5234H24.1406C24.1406 78.6641 25.4062 81.3828 27.9375 83.6797C30.4688 85.9766 33.5859 87.125 37.2891 87.125C41.4609 87.125 44.7891 85.9766 47.2734 83.6797C49.7578 81.3359 51 78.3594 51 74.75C51 69.5938 49.7109 65.9375 47.1328 63.7812C44.5547 61.625 40.9922 60.5469 36.4453 60.5469H24.9141V42.8984ZM133.336 69.0547H91.0781V50.7031H133.336V69.0547ZM152.883 53.9375L159.141 1.625H218.977V20.0469H178.406L176.086 40.3672C177.773 39.3828 179.977 38.5156 182.695 37.7656C185.461 37.0156 188.156 36.6406 190.781 36.6406C200.953 36.6406 208.758 39.6641 214.195 45.7109C219.68 51.7109 222.422 60.1484 222.422 71.0234C222.422 77.5859 220.945 83.5391 217.992 88.8828C215.086 94.1797 210.984 98.2578 205.688 101.117C200.391 103.977 194.133 105.406 186.914 105.406C180.492 105.406 174.469 104.094 168.844 101.469C163.219 98.7969 158.812 95.1641 155.625 90.5703C152.438 85.9297 150.867 80.7031 150.914 74.8906H174.68C174.914 78.6406 176.109 81.6172 178.266 83.8203C180.422 86.0234 183.258 87.125 186.773 87.125C194.742 87.125 198.727 81.2188 198.727 69.4062C198.727 58.4844 193.852 53.0234 184.102 53.0234C178.57 53.0234 174.445 54.8047 171.727 58.3672L152.883 53.9375Z" fill="#ACD7F2"/>
</svg>
