<svg width="265" height="151" viewBox="0 0 265 151" fill="none" xmlns="http://www.w3.org/2000/svg">
<path d="M73.6953 133H2.25781V117.531L35.1641 82.9375C43.2734 73.7031 47.3281 66.3672 47.3281 60.9297C47.3281 56.5234 46.3672 53.1719 44.4453 50.875C42.5234 48.5781 39.7344 47.4297 36.0781 47.4297C32.4688 47.4297 29.5391 48.9766 27.2891 52.0703C25.0391 55.1172 23.9141 58.9375 23.9141 63.5312H0.148438C0.148438 57.25 1.71875 51.4609 4.85938 46.1641C8 40.8203 12.3594 36.6484 17.9375 33.6484C23.5156 30.6484 29.75 29.1484 36.6406 29.1484C47.7031 29.1484 56.2109 31.7031 62.1641 36.8125C68.1641 41.9219 71.1641 49.2578 71.1641 58.8203C71.1641 62.8516 70.4141 66.7891 68.9141 70.6328C67.4141 74.4297 65.0703 78.4375 61.8828 82.6562C58.7422 86.8281 53.6562 92.4297 46.625 99.4609L33.4062 114.719H73.6953V133Z" fill="#ACD7F2"/>
<path d="M214.883 71.8984H226.062C234.922 71.8984 239.352 67.5625 239.352 58.8906C239.352 55.5156 238.297 52.7734 236.188 50.6641C234.078 48.5078 231.102 47.4297 227.258 47.4297C224.117 47.4297 221.375 48.3438 219.031 50.1719C216.734 52 215.586 54.2734 215.586 56.9922H191.891C191.891 51.6016 193.391 46.7969 196.391 42.5781C199.391 38.3594 203.539 35.0781 208.836 32.7344C214.18 30.3438 220.039 29.1484 226.414 29.1484C237.805 29.1484 246.758 31.75 253.273 36.9531C259.789 42.1562 263.047 49.3047 263.047 58.3984C263.047 62.8047 261.688 66.9766 258.969 70.9141C256.297 74.8047 252.383 77.9688 247.227 80.4062C252.664 82.375 256.93 85.375 260.023 89.4062C263.117 93.3906 264.664 98.3359 264.664 104.242C264.664 113.383 261.148 120.695 254.117 126.18C247.086 131.664 237.852 134.406 226.414 134.406C219.711 134.406 213.477 133.141 207.711 130.609C201.992 128.031 197.656 124.492 194.703 119.992C191.75 115.445 190.273 110.289 190.273 104.523H214.109C214.109 107.664 215.375 110.383 217.906 112.68C220.438 114.977 223.555 116.125 227.258 116.125C231.43 116.125 234.758 114.977 237.242 112.68C239.727 110.336 240.969 107.359 240.969 103.75C240.969 98.5938 239.68 94.9375 237.102 92.7812C234.523 90.625 230.961 89.5469 226.414 89.5469H214.883V71.8984Z" fill="#ACD7F2"/>
<path d="M144.781 103H121.016V27.3438L97.6719 34.1641V16.1641L142.602 0.625H144.781V103Z" fill="#ACD7F2"/>
<path d="M0 142H89V112H177.5V142H265V151H0V142Z" fill="#ACD7F2"/>
</svg>
