<svg width="541" height="435" viewBox="0 0 541 435" fill="none" xmlns="http://www.w3.org/2000/svg">
<path d="M0 0H491.162V165.663L541 150.438L491.162 230.188V435H0V0Z" fill="#01295F"/>
<path d="M73 90C73 100.333 69.3333 109 62 116C54.6667 122.667 45.5 126 34.5 126C24.1667 126 15.8333 122.833 9.5 116.5C3.16667 110.167 0 101.167 0 89.5C0 80.1667 1.66667 71.1667 5 62.5C8.66667 53.8333 13.5 45.6667 19.5 38C25.5 30.3334 32.5 23.3334 40.5 17C48.5 10.6667 57 5.33334 66 1L74 18.5C65.3333 23.8334 57.3333 30.3334 50 38C43 45.3333 37.6667 53.8333 34 63.5C37.3333 62.5 40.8333 62 44.5 62C52.8333 62 59.6667 64.6667 65 70C70.3333 75.3333 73 82 73 90ZM164.5 90C164.5 100.333 160.833 109 153.5 116C146.167 122.667 137 126 126 126C115.667 126 107.333 122.833 101 116.5C94.6667 110.167 91.5 101.167 91.5 89.5C91.5 80.1667 93.1667 71.1667 96.5 62.5C100.167 53.8333 105 45.6667 111 38C117 30.3334 124 23.3334 132 17C140 10.6667 148.5 5.33334 157.5 1L165.5 18.5C156.833 23.8334 148.833 30.3334 141.5 38C134.5 45.3333 129.167 53.8333 125.5 63.5C128.833 62.5 132.333 62 136 62C144.333 62 151.167 64.6667 156.5 70C161.833 75.3333 164.5 82 164.5 90Z" fill="#2081C3" fill-opacity="0.18"/>
<path d="M398.616 401.554C398.616 411.22 395.45 419.054 389.116 425.054C382.783 430.72 374.783 433.554 365.116 433.554C353.45 433.554 343.783 429.72 336.116 422.054C328.783 414.387 325.116 403.387 325.116 389.054C325.116 373.72 329.45 358.72 338.116 344.054C347.116 329.054 359.616 317.22 375.616 308.554L387.116 326.054C378.45 332.054 371.45 338.72 366.116 346.054C361.116 353.387 357.783 361.887 356.116 371.554C359.116 370.22 362.616 369.554 366.616 369.554C375.95 369.554 383.616 372.554 389.616 378.554C395.616 384.554 398.616 392.22 398.616 401.554ZM490.616 401.554C490.616 411.22 487.45 419.054 481.116 425.054C474.783 430.72 466.783 433.554 457.116 433.554C445.45 433.554 435.783 429.72 428.116 422.054C420.783 414.387 417.116 403.387 417.116 389.054C417.116 373.72 421.45 358.72 430.116 344.054C439.116 329.054 451.616 317.22 467.616 308.554L479.116 326.054C470.45 332.054 463.45 338.72 458.116 346.054C453.116 353.387 449.783 361.887 448.116 371.554C451.116 370.22 454.616 369.554 458.616 369.554C467.95 369.554 475.616 372.554 481.616 378.554C487.616 384.554 490.616 392.22 490.616 401.554Z" fill="#2081C3" fill-opacity="0.18"/>
</svg>
